<svg width="512" height="491" viewBox="0 0 512 491" fill="none" xmlns="http://www.w3.org/2000/svg">
<path d="M299.546 51C336.829 153.483 301.163 257.755 301.163 360" stroke="#FFFDF2" stroke-width="32" stroke-linecap="round" stroke-linejoin="round"/>
<path d="M321.496 345.524C366.352 334.258 399.61 344.396 437.512 367.898" stroke="#FFFDF2" stroke-width="32" stroke-linecap="round" stroke-linejoin="round"/>
<path d="M43.5928 405.672C185.676 392.752 331.298 415.778 467.192 370.598" stroke="#FFFDF2" stroke-width="32" stroke-linecap="round" stroke-linejoin="round"/>
<path d="M472.588 384.086C467.676 399.868 460.9 413.92 451.004 427.256" stroke="#FFFDF2" stroke-width="32" stroke-linecap="round" stroke-linejoin="round"/>
<path d="M39.5459 416.464C39.5459 428.156 39.5459 439.848 39.5459 451.54" stroke="#FFFDF2" stroke-width="32" stroke-linecap="round" stroke-linejoin="round"/>
<path d="M121.932 375.524C131.76 327.242 264.93 328.114 264.93 386.786" stroke="#FFFDF2" stroke-width="32" stroke-linecap="round" stroke-linejoin="round"/>
<path d="M16.002 460.146C21.8839 456.392 32.564 448.954 40.0654 448.954C56.9723 448.954 74.7622 480.799 92.9023 473.943C102.389 470.351 104.584 447.138 115.961 445.22C135.136 442.006 202.732 478.881 210.902 473.943C223.463 466.343 300.787 448.954 343.035 463.88C356.402 425.455 468.421 437.716 481.402 441.454" stroke="#FFFDF2" stroke-width="32" stroke-linecap="round" stroke-linejoin="round"/>
<path d="M246.518 220.31C247.676 230.622 246.977 238.623 244.423 244.315C241.734 249.899 236.628 253.113 229.107 253.958C224.376 254.489 219.414 253.511 214.221 251.024C209.028 248.536 203.814 244.761 198.577 239.698C193.327 234.515 188.319 228.198 183.551 220.749C178.649 213.193 174.136 204.732 170.013 195.368C165.877 185.883 162.32 175.534 159.341 164.322C156.361 153.11 154.177 141.317 152.787 128.944C151.384 116.449 151.451 104.465 152.987 92.9912C154.403 81.5312 157.558 71.3497 162.455 62.4468C167.216 53.4363 173.813 46.0007 182.244 40.1402C190.555 34.2933 200.897 30.6749 213.27 29.2852C223.581 28.1271 232.809 28.2577 240.953 29.6769C249.096 31.0961 256.311 33.541 262.597 37.0115C268.748 40.3743 274.132 44.5603 278.748 49.5695C283.243 54.5923 287.058 60.1215 290.193 66.157C293.192 72.0848 295.559 78.3909 297.292 85.0751C299.012 91.638 300.24 98.1948 300.976 104.745C301.984 113.722 325.149 116.523 324.12 123.764C322.969 131.017 321.521 137.261 319.774 142.493C317.893 147.618 316.071 151.63 314.309 154.531C312.425 157.445 311.322 159.104 310.999 159.509C308.868 159.134 307.44 159.54 306.713 160.727C305.987 161.915 305.726 163.418 305.93 165.238C306.203 167.664 307.035 170.15 308.426 172.696C309.683 175.134 311.283 177.35 313.226 179.343C315.156 181.214 317.295 182.755 319.642 183.966C321.854 185.069 324.052 185.497 326.235 185.252C327.206 185.143 304.987 190.22 305.93 189.868C306.752 189.53 307.607 188.943 308.496 188.106C308.725 187.958 309.539 187.006 310.939 185.252C312.326 183.377 314.001 180.793 315.965 177.502C317.929 174.21 319.994 170.17 322.158 165.382C324.188 160.486 326.021 154.937 327.659 148.734C329.175 142.545 330.245 135.668 330.869 128.105C331.494 120.542 331.316 112.393 330.335 103.659C328.441 86.7972 322.721 60.9994 316.046 47.5C309.236 33.8929 304.639 31.0058 294.046 22C283.439 12.8729 268.481 8.46642 254.511 4.385C240.527 0.182261 225.346 -0.999437 208.97 0.839902C191.623 2.78824 177.077 7.80004 165.331 15.8753C153.451 23.8429 144.121 33.7351 137.341 45.552C130.439 57.3826 125.838 70.5517 123.537 85.0594C121.235 99.567 120.929 114.342 122.619 129.384C124.594 146.974 127.815 163.072 132.281 177.68C136.626 192.301 141.845 205.411 147.938 217.01C153.91 228.623 160.514 238.753 167.75 247.399C174.972 255.923 182.395 262.951 190.018 268.482C197.627 273.893 205.248 277.766 212.881 280.102C220.514 282.439 227.727 283.226 234.52 282.463C243.254 281.482 250.558 279.249 256.431 275.764C262.197 272.414 266.667 267.919 269.841 262.281C273.003 256.521 275.003 249.724 275.843 241.891C276.669 233.937 276.531 225.047 275.427 215.221L259.384 72.3812C258.989 68.8633 258.952 66.3492 259.274 64.839C259.582 63.2075 259.661 61.7246 259.511 60.3902C259.293 58.4493 258.152 57.0419 256.089 56.1682C254.012 55.1731 251.639 54.8254 248.97 55.1251C242.783 55.82 237.994 58.0163 234.601 61.7139C231.073 65.3039 229.562 69.3431 230.066 73.8315L246.518 220.31Z" fill="#FFFDF2"/>
<path d="M386.262 220.31C385.104 230.622 385.802 238.623 388.356 244.315C391.046 249.899 396.151 253.113 403.672 253.958C408.403 254.489 413.365 253.511 418.558 251.024C423.751 248.536 428.966 244.761 434.202 239.698C439.452 234.515 444.461 228.198 449.228 220.749C454.131 213.193 458.643 204.732 462.766 195.368C466.902 185.883 470.46 175.534 473.439 164.322C476.418 153.11 478.602 141.317 479.992 128.944C481.395 116.449 481.329 104.465 479.792 92.9912C478.377 81.5312 475.221 71.3497 470.325 62.4468C465.563 53.4363 458.967 46.0007 450.535 40.1402C442.225 34.2933 431.883 30.6749 419.509 29.2852C409.198 28.1271 399.971 28.2577 391.827 29.6769C383.683 31.0961 376.468 33.541 370.182 37.0115C364.031 40.3743 358.647 44.5603 354.031 49.5695C349.536 54.5923 345.721 60.1215 342.587 66.157C339.587 72.0848 337.22 78.3909 335.487 85.0751C333.767 91.638 332.539 98.1948 331.803 104.745C330.795 113.722 307.63 116.523 308.66 123.764C309.81 131.017 311.259 137.261 313.005 142.493C314.886 147.618 316.708 151.63 318.47 154.531C320.354 157.445 321.458 159.104 321.781 159.509C323.911 159.134 325.339 159.54 326.066 160.727C326.793 161.915 327.054 163.418 326.849 165.238C326.577 167.664 325.745 170.15 324.353 172.696C323.097 175.134 321.497 177.35 319.553 179.343C317.623 181.214 315.485 182.755 313.138 183.966C310.926 185.069 308.728 185.497 306.544 185.252C305.574 185.143 327.792 190.22 326.849 189.868C326.027 189.53 325.172 188.943 324.283 188.106C324.054 187.958 323.24 187.006 321.84 185.252C320.454 183.377 318.779 180.793 316.814 177.502C314.85 174.21 312.786 170.17 310.621 165.382C308.591 160.486 306.758 154.937 305.121 148.734C303.605 142.545 302.534 135.668 301.91 128.105C301.285 120.542 301.463 112.393 302.444 103.659C304.338 86.7972 310.058 60.9994 316.733 47.5C323.544 33.8929 328.141 31.0058 338.733 22C349.34 12.8729 364.298 8.46642 378.269 4.385C392.253 0.182261 407.433 -0.999437 423.81 0.839902C441.157 2.78824 455.703 7.80004 467.448 15.8753C479.328 23.8429 488.659 33.7351 495.439 45.552C502.34 57.3826 506.941 70.5517 509.243 85.0594C511.544 99.567 511.85 114.342 510.161 129.384C508.185 146.974 504.964 163.072 500.498 177.68C496.154 192.301 490.935 205.411 484.841 217.01C478.869 228.623 472.265 238.753 465.029 247.399C457.807 255.923 450.385 262.951 442.762 268.482C435.152 273.893 427.531 277.766 419.898 280.102C412.266 282.439 405.053 283.226 398.259 282.463C389.525 281.482 382.222 279.249 376.348 275.764C370.583 272.414 366.113 267.919 362.938 262.281C359.777 256.521 357.776 249.724 356.936 241.891C356.11 233.937 356.249 225.047 357.352 215.221L373.395 72.3812C373.79 68.8633 373.827 66.3492 373.505 64.839C373.197 63.2075 373.118 61.7246 373.268 60.3902C373.486 58.4493 374.627 57.0419 376.69 56.1682C378.768 55.1731 381.141 54.8254 383.809 55.1251C389.996 55.82 394.786 58.0163 398.178 61.7139C401.706 65.3039 403.218 69.3431 402.714 73.8315L386.262 220.31Z" fill="#FFFDF2"/>
</svg>
