<?xml version="1.0" encoding="UTF-8" standalone="no"?>
<svg width="800px" height="800px" viewBox="0 0 10 10" version="1.1" xmlns="http://www.w3.org/2000/svg">
  <title>RSS</title>
  <path fill="#000000" d="M0.01405871,7.9522 L0.01405871,8.95455 C0.01405871,9.50785 0.46393743,9.9569 1.0182523,9.9569 L2.0224458,9.9569 C2.0224458,8.8493 1.1236926,7.9522 0.01405871,7.9522 M0,3.94279 L0,5.94749 C2.215251,5.94749 4.0167743,7.9953 4.0167743,10 L6.0251614,10 C6.0251614,6.99295 3.3278975,3.94279 0,3.94279 M9.9937344,8.85231 C10.0600112,9.45071 9.592057,10 8.9895408,10 L8.0476073,10 C8.0476073,5.99059 4.0167743,1.93809 0,1.93809 L0,0.99788 C0,0.39647 0.53623937,-0.0606 1.1347387,0.00656 C5.7801382,0.52477 9.4745663,4.21643 9.9937344,8.85231"/>
</svg>
